<svg width="320" height="568" viewBox="0 0 320 568" fill="none" xmlns="http://www.w3.org/2000/svg">
<g clip-path="url(#clip0)">
<rect width="320" height="568" fill="#E0D8E2"/>
<path d="M22.1396 149.927H27.834V151H20.5879V150.016L26.043 142.127H20.6768V141.047H27.6152V142.011L22.1396 149.927ZM33.9043 151C33.8314 150.854 33.7721 150.594 33.7266 150.221C33.1387 150.831 32.4368 151.137 31.6211 151.137C30.8919 151.137 30.2926 150.932 29.8232 150.521C29.3584 150.107 29.126 149.583 29.126 148.949C29.126 148.179 29.4176 147.582 30.001 147.158C30.5889 146.73 31.4137 146.516 32.4756 146.516H33.7061V145.935C33.7061 145.493 33.5739 145.142 33.3096 144.882C33.0452 144.618 32.6556 144.485 32.1406 144.485C31.6895 144.485 31.3112 144.599 31.0059 144.827C30.7005 145.055 30.5479 145.331 30.5479 145.654H29.2764C29.2764 145.285 29.4062 144.93 29.666 144.588C29.9303 144.242 30.2858 143.968 30.7324 143.768C31.1836 143.567 31.6781 143.467 32.2158 143.467C33.068 143.467 33.7357 143.681 34.2188 144.109C34.7018 144.533 34.9525 145.119 34.9707 145.866V149.271C34.9707 149.95 35.0573 150.49 35.2305 150.891V151H33.9043ZM31.8057 150.036C32.2021 150.036 32.5781 149.934 32.9336 149.729C33.2891 149.523 33.5465 149.257 33.7061 148.929V147.411H32.7148C31.1654 147.411 30.3906 147.865 30.3906 148.771C30.3906 149.168 30.5228 149.478 30.7871 149.701C31.0514 149.924 31.391 150.036 31.8057 150.036ZM40.5283 144.738C40.3369 144.706 40.1296 144.69 39.9062 144.69C39.0768 144.69 38.514 145.044 38.2178 145.75V151H36.9531V143.604H38.1836L38.2041 144.458C38.6188 143.797 39.2067 143.467 39.9678 143.467C40.2139 143.467 40.4007 143.499 40.5283 143.562V144.738ZM44.6299 151.137C43.6273 151.137 42.8115 150.809 42.1826 150.152C41.5537 149.492 41.2393 148.61 41.2393 147.507V147.274C41.2393 146.541 41.3783 145.887 41.6562 145.312C41.9388 144.734 42.3307 144.283 42.832 143.959C43.3379 143.631 43.8848 143.467 44.4727 143.467C45.4342 143.467 46.1816 143.784 46.7148 144.417C47.248 145.05 47.5146 145.957 47.5146 147.138V147.664H42.5039C42.5221 148.393 42.734 148.983 43.1396 149.435C43.5498 149.881 44.0693 150.104 44.6982 150.104C45.1449 150.104 45.5231 150.013 45.833 149.831C46.1429 149.649 46.4141 149.407 46.6465 149.106L47.4189 149.708C46.7992 150.66 45.8695 151.137 44.6299 151.137ZM44.4727 144.506C43.9622 144.506 43.5339 144.693 43.1875 145.066C42.8411 145.436 42.627 145.955 42.5449 146.625H46.25V146.529C46.2135 145.887 46.0404 145.39 45.7305 145.039C45.4206 144.684 45.0013 144.506 44.4727 144.506ZM48.6836 147.24C48.6836 146.087 48.9502 145.171 49.4834 144.492C50.0166 143.809 50.723 143.467 51.6025 143.467C52.5049 143.467 53.209 143.786 53.7148 144.424L53.7764 143.604H54.9316V150.822C54.9316 151.779 54.6468 152.534 54.0771 153.085C53.512 153.636 52.751 153.912 51.7939 153.912C51.2607 153.912 50.7389 153.798 50.2285 153.57C49.7181 153.342 49.3285 153.03 49.0596 152.634L49.7158 151.875C50.2581 152.545 50.9212 152.88 51.7051 152.88C52.3203 152.88 52.7988 152.707 53.1406 152.36C53.487 152.014 53.6602 151.526 53.6602 150.897V150.262C53.1543 150.845 52.4639 151.137 51.5889 151.137C50.723 151.137 50.0212 150.788 49.4834 150.091C48.9502 149.394 48.6836 148.443 48.6836 147.24ZM49.9551 147.384C49.9551 148.218 50.126 148.874 50.4678 149.353C50.8096 149.826 51.2881 150.063 51.9033 150.063C52.7008 150.063 53.2865 149.701 53.6602 148.977V145.6C53.2728 144.893 52.6917 144.54 51.917 144.54C51.3018 144.54 50.821 144.779 50.4746 145.258C50.1283 145.736 49.9551 146.445 49.9551 147.384ZM58.2197 151H56.9551V143.604H58.2197V151ZM56.8525 141.642C56.8525 141.437 56.9141 141.263 57.0371 141.122C57.1647 140.981 57.3516 140.91 57.5977 140.91C57.8438 140.91 58.0306 140.981 58.1582 141.122C58.2858 141.263 58.3496 141.437 58.3496 141.642C58.3496 141.847 58.2858 142.018 58.1582 142.154C58.0306 142.291 57.8438 142.359 57.5977 142.359C57.3516 142.359 57.1647 142.291 57.0371 142.154C56.9141 142.018 56.8525 141.847 56.8525 141.642ZM64.5566 149.038C64.5566 148.696 64.4268 148.432 64.167 148.245C63.9118 148.054 63.4629 147.89 62.8203 147.753C62.1823 147.616 61.6742 147.452 61.2959 147.261C60.9222 147.069 60.6442 146.841 60.4619 146.577C60.2842 146.313 60.1953 145.998 60.1953 145.634C60.1953 145.028 60.4505 144.515 60.9609 144.096C61.4759 143.676 62.1322 143.467 62.9297 143.467C63.7682 143.467 64.4473 143.683 64.9668 144.116C65.4909 144.549 65.7529 145.103 65.7529 145.777H64.4814C64.4814 145.431 64.3333 145.132 64.0371 144.882C63.7454 144.631 63.3763 144.506 62.9297 144.506C62.4694 144.506 62.1094 144.606 61.8496 144.807C61.5898 145.007 61.46 145.269 61.46 145.593C61.46 145.898 61.5807 146.128 61.8223 146.283C62.0638 146.438 62.499 146.586 63.1279 146.728C63.7614 146.869 64.2741 147.037 64.666 147.233C65.0579 147.429 65.3473 147.666 65.5342 147.944C65.7256 148.218 65.8213 148.553 65.8213 148.949C65.8213 149.61 65.557 150.141 65.0283 150.542C64.4997 150.938 63.8138 151.137 62.9707 151.137C62.3783 151.137 61.8542 151.032 61.3984 150.822C60.9427 150.613 60.585 150.321 60.3252 149.947C60.07 149.569 59.9424 149.161 59.9424 148.724H61.207C61.2298 149.147 61.3984 149.485 61.7129 149.735C62.0319 149.981 62.4512 150.104 62.9707 150.104C63.4492 150.104 63.832 150.009 64.1191 149.817C64.4108 149.621 64.5566 149.362 64.5566 149.038ZM69.1846 141.812V143.604H70.5654V144.581H69.1846V149.168C69.1846 149.464 69.2461 149.688 69.3691 149.838C69.4922 149.984 69.7018 150.057 69.998 150.057C70.1439 150.057 70.3444 150.029 70.5996 149.975V151C70.2669 151.091 69.9434 151.137 69.6289 151.137C69.0638 151.137 68.6377 150.966 68.3506 150.624C68.0635 150.282 67.9199 149.797 67.9199 149.168V144.581H66.5732V143.604H67.9199V141.812H69.1846ZM75.624 144.738C75.4326 144.706 75.2253 144.69 75.002 144.69C74.1725 144.69 73.6097 145.044 73.3135 145.75V151H72.0488V143.604H73.2793L73.2998 144.458C73.7145 143.797 74.3024 143.467 75.0635 143.467C75.3096 143.467 75.4964 143.499 75.624 143.562V144.738ZM76.3213 147.233C76.3213 146.509 76.4626 145.857 76.7451 145.278C77.0322 144.7 77.4287 144.253 77.9346 143.938C78.445 143.624 79.026 143.467 79.6777 143.467C80.6849 143.467 81.4984 143.815 82.1182 144.513C82.7425 145.21 83.0547 146.137 83.0547 147.295V147.384C83.0547 148.104 82.9157 148.751 82.6377 149.325C82.3643 149.895 81.9701 150.339 81.4551 150.658C80.9447 150.977 80.3568 151.137 79.6914 151.137C78.6888 151.137 77.8753 150.788 77.251 150.091C76.6312 149.394 76.3213 148.471 76.3213 147.322V147.233ZM77.5928 147.384C77.5928 148.204 77.7819 148.863 78.1602 149.359C78.543 149.856 79.0534 150.104 79.6914 150.104C80.334 150.104 80.8444 149.854 81.2227 149.353C81.6009 148.847 81.79 148.14 81.79 147.233C81.79 146.422 81.5964 145.766 81.209 145.265C80.8262 144.759 80.3158 144.506 79.6777 144.506C79.0534 144.506 78.5498 144.754 78.167 145.251C77.7842 145.748 77.5928 146.459 77.5928 147.384ZM86.9717 149.284L88.8037 143.604H90.0957L87.4434 151H86.4795L83.7998 143.604H85.0918L86.9717 149.284ZM95.7695 151C95.6966 150.854 95.6374 150.594 95.5918 150.221C95.0039 150.831 94.3021 151.137 93.4863 151.137C92.7572 151.137 92.1579 150.932 91.6885 150.521C91.2236 150.107 90.9912 149.583 90.9912 148.949C90.9912 148.179 91.2829 147.582 91.8662 147.158C92.4541 146.73 93.279 146.516 94.3408 146.516H95.5713V145.935C95.5713 145.493 95.4391 145.142 95.1748 144.882C94.9105 144.618 94.5208 144.485 94.0059 144.485C93.5547 144.485 93.1764 144.599 92.8711 144.827C92.5658 145.055 92.4131 145.331 92.4131 145.654H91.1416C91.1416 145.285 91.2715 144.93 91.5312 144.588C91.7956 144.242 92.151 143.968 92.5977 143.768C93.0488 143.567 93.5433 143.467 94.0811 143.467C94.9333 143.467 95.6009 143.681 96.084 144.109C96.5671 144.533 96.8177 145.119 96.8359 145.866V149.271C96.8359 149.95 96.9225 150.49 97.0957 150.891V151H95.7695ZM93.6709 150.036C94.0674 150.036 94.4434 149.934 94.7988 149.729C95.1543 149.523 95.4118 149.257 95.5713 148.929V147.411H94.5801C93.0306 147.411 92.2559 147.865 92.2559 148.771C92.2559 149.168 92.388 149.478 92.6523 149.701C92.9167 149.924 93.2562 150.036 93.6709 150.036ZM100.534 141.812V143.604H101.915V144.581H100.534V149.168C100.534 149.464 100.596 149.688 100.719 149.838C100.842 149.984 101.051 150.057 101.348 150.057C101.493 150.057 101.694 150.029 101.949 149.975V151C101.617 151.091 101.293 151.137 100.979 151.137C100.413 151.137 99.9873 150.966 99.7002 150.624C99.4131 150.282 99.2695 149.797 99.2695 149.168V144.581H97.9229V143.604H99.2695V141.812H100.534Z" fill="#3B2591"/>
<path d="M108.129 152.846H107.11V141.047H108.129V152.846Z" fill="black"/>
<path d="M115.272 147.104V151H113.96V141.047H117.631C118.72 141.047 119.572 141.325 120.188 141.881C120.807 142.437 121.117 143.173 121.117 144.089C121.117 145.055 120.814 145.8 120.208 146.324C119.606 146.844 118.743 147.104 117.617 147.104H115.272ZM115.272 146.03H117.631C118.333 146.03 118.87 145.866 119.244 145.538C119.618 145.205 119.805 144.727 119.805 144.103C119.805 143.51 119.618 143.036 119.244 142.681C118.87 142.325 118.358 142.141 117.706 142.127H115.272V146.03ZM126.169 144.738C125.978 144.706 125.77 144.69 125.547 144.69C124.717 144.69 124.155 145.044 123.858 145.75V151H122.594V143.604H123.824L123.845 144.458C124.259 143.797 124.847 143.467 125.608 143.467C125.854 143.467 126.041 143.499 126.169 143.562V144.738ZM124.419 141.662L125.444 140.5H126.538V140.568L124.802 142.441H124.029L122.313 140.568V140.5H123.387L124.419 141.662ZM128.712 151H127.447V143.604H128.712V151ZM127.345 141.642C127.345 141.437 127.406 141.263 127.529 141.122C127.657 140.981 127.844 140.91 128.09 140.91C128.336 140.91 128.523 140.981 128.65 141.122C128.778 141.263 128.842 141.437 128.842 141.642C128.842 141.847 128.778 142.018 128.65 142.154C128.523 142.291 128.336 142.359 128.09 142.359C127.844 142.359 127.657 142.291 127.529 142.154C127.406 142.018 127.345 141.847 127.345 141.642ZM132.007 144.499C132.567 143.811 133.297 143.467 134.194 143.467C135.757 143.467 136.546 144.349 136.56 146.112V151H135.295V146.105C135.29 145.572 135.167 145.178 134.926 144.923C134.689 144.668 134.317 144.54 133.812 144.54C133.401 144.54 133.041 144.649 132.731 144.868C132.422 145.087 132.18 145.374 132.007 145.729V151H130.742V140.5H132.007V144.499ZM139.827 151H138.562V140.5H139.827V151ZM146.424 151C146.351 150.854 146.292 150.594 146.246 150.221C145.658 150.831 144.956 151.137 144.141 151.137C143.411 151.137 142.812 150.932 142.343 150.521C141.878 150.107 141.646 149.583 141.646 148.949C141.646 148.179 141.937 147.582 142.521 147.158C143.108 146.73 143.933 146.516 144.995 146.516H146.226V145.935C146.226 145.493 146.093 145.142 145.829 144.882C145.565 144.618 145.175 144.485 144.66 144.485C144.209 144.485 143.831 144.599 143.525 144.827C143.22 145.055 143.067 145.331 143.067 145.654H141.796C141.796 145.285 141.926 144.93 142.186 144.588C142.45 144.242 142.805 143.968 143.252 143.768C143.703 143.567 144.198 143.467 144.735 143.467C145.588 143.467 146.255 143.681 146.738 144.109C147.221 144.533 147.472 145.119 147.49 145.866V149.271C147.49 149.95 147.577 150.49 147.75 150.891V151H146.424ZM144.325 150.036C144.722 150.036 145.098 149.934 145.453 149.729C145.809 149.523 146.066 149.257 146.226 148.929V147.411H145.234C143.685 147.411 142.91 147.865 142.91 148.771C142.91 149.168 143.042 149.478 143.307 149.701C143.571 149.924 143.91 150.036 144.325 150.036ZM145.494 140.5H147.025L145.193 142.51H144.175L145.494 140.5ZM153.779 149.038C153.779 148.696 153.649 148.432 153.39 148.245C153.134 148.054 152.686 147.89 152.043 147.753C151.405 147.616 150.897 147.452 150.519 147.261C150.145 147.069 149.867 146.841 149.685 146.577C149.507 146.313 149.418 145.998 149.418 145.634C149.418 145.028 149.673 144.515 150.184 144.096C150.699 143.676 151.355 143.467 152.152 143.467C152.991 143.467 153.67 143.683 154.189 144.116C154.714 144.549 154.976 145.103 154.976 145.777H153.704C153.704 145.431 153.556 145.132 153.26 144.882C152.968 144.631 152.599 144.506 152.152 144.506C151.692 144.506 151.332 144.606 151.072 144.807C150.812 145.007 150.683 145.269 150.683 145.593C150.683 145.898 150.803 146.128 151.045 146.283C151.286 146.438 151.722 146.586 152.351 146.728C152.984 146.869 153.497 147.037 153.889 147.233C154.281 147.429 154.57 147.666 154.757 147.944C154.948 148.218 155.044 148.553 155.044 148.949C155.044 149.61 154.78 150.141 154.251 150.542C153.722 150.938 153.036 151.137 152.193 151.137C151.601 151.137 151.077 151.032 150.621 150.822C150.165 150.613 149.808 150.321 149.548 149.947C149.293 149.569 149.165 149.161 149.165 148.724H150.43C150.452 149.147 150.621 149.485 150.936 149.735C151.255 149.981 151.674 150.104 152.193 150.104C152.672 150.104 153.055 150.009 153.342 149.817C153.633 149.621 153.779 149.362 153.779 149.038ZM158.065 151H156.801V143.604H158.065V151ZM156.698 141.642C156.698 141.437 156.76 141.263 156.883 141.122C157.01 140.981 157.197 140.91 157.443 140.91C157.689 140.91 157.876 140.981 158.004 141.122C158.132 141.263 158.195 141.437 158.195 141.642C158.195 141.847 158.132 142.018 158.004 142.154C157.876 142.291 157.689 142.359 157.443 142.359C157.197 142.359 157.01 142.291 156.883 142.154C156.76 142.018 156.698 141.847 156.698 141.642ZM161.812 141.812V143.604H163.192V144.581H161.812V149.168C161.812 149.464 161.873 149.688 161.996 149.838C162.119 149.984 162.329 150.057 162.625 150.057C162.771 150.057 162.971 150.029 163.227 149.975V151C162.894 151.091 162.57 151.137 162.256 151.137C161.691 151.137 161.265 150.966 160.978 150.624C160.69 150.282 160.547 149.797 160.547 149.168V144.581H159.2V143.604H160.547V141.812H161.812ZM172.455 149.038C172.455 148.696 172.325 148.432 172.065 148.245C171.81 148.054 171.361 147.89 170.719 147.753C170.081 147.616 169.573 147.452 169.194 147.261C168.821 147.069 168.543 146.841 168.36 146.577C168.183 146.313 168.094 145.998 168.094 145.634C168.094 145.028 168.349 144.515 168.859 144.096C169.374 143.676 170.031 143.467 170.828 143.467C171.667 143.467 172.346 143.683 172.865 144.116C173.389 144.549 173.651 145.103 173.651 145.777H172.38C172.38 145.431 172.232 145.132 171.936 144.882C171.644 144.631 171.275 144.506 170.828 144.506C170.368 144.506 170.008 144.606 169.748 144.807C169.488 145.007 169.358 145.269 169.358 145.593C169.358 145.898 169.479 146.128 169.721 146.283C169.962 146.438 170.397 146.586 171.026 146.728C171.66 146.869 172.173 147.037 172.564 147.233C172.956 147.429 173.246 147.666 173.433 147.944C173.624 148.218 173.72 148.553 173.72 148.949C173.72 149.61 173.455 150.141 172.927 150.542C172.398 150.938 171.712 151.137 170.869 151.137C170.277 151.137 169.753 151.032 169.297 150.822C168.841 150.613 168.483 150.321 168.224 149.947C167.968 149.569 167.841 149.161 167.841 148.724H169.105C169.128 149.147 169.297 149.485 169.611 149.735C169.93 149.981 170.35 150.104 170.869 150.104C171.348 150.104 171.73 150.009 172.018 149.817C172.309 149.621 172.455 149.362 172.455 149.038ZM178.437 151.137C177.434 151.137 176.618 150.809 175.989 150.152C175.36 149.492 175.046 148.61 175.046 147.507V147.274C175.046 146.541 175.185 145.887 175.463 145.312C175.745 144.734 176.137 144.283 176.639 143.959C177.145 143.631 177.691 143.467 178.279 143.467C179.241 143.467 179.988 143.784 180.521 144.417C181.055 145.05 181.321 145.957 181.321 147.138V147.664H176.311C176.329 148.393 176.541 148.983 176.946 149.435C177.356 149.881 177.876 150.104 178.505 150.104C178.951 150.104 179.33 150.013 179.64 149.831C179.95 149.649 180.221 149.407 180.453 149.106L181.226 149.708C180.606 150.66 179.676 151.137 178.437 151.137ZM178.279 144.506C177.769 144.506 177.34 144.693 176.994 145.066C176.648 145.436 176.434 145.955 176.352 146.625H180.057V146.529C180.02 145.887 179.847 145.39 179.537 145.039C179.227 144.684 178.808 144.506 178.279 144.506Z" fill="#7D7D7D"/>
<path d="M0.5 567.5H319.5V380.5H0.5V567.5Z" fill="#1C0A62" stroke="#3B2591"/>
<rect x="20.5" y="283.409" width="71.4796" height="20.0909" rx="10.0455" stroke="#3B2591"/>
<rect x="20.5" y="231.773" width="265" height="26.6364" rx="13.3182" stroke="#3B2591"/>
<rect x="20.5" y="176.5" width="265" height="26.6364" rx="13.3182" stroke="#3B2591"/>
<path d="M26.3164 33.0664L24.2305 35.2344V41H21.9805V23.9375H24.2305V32.375L31.8125 23.9375H34.5312L27.8164 31.4727L35.0586 41H32.3633L26.3164 33.0664ZM35.7852 34.543C35.7852 33.3008 36.0273 32.1836 36.5117 31.1914C37.0039 30.1992 37.6836 29.4336 38.5508 28.8945C39.4258 28.3555 40.4219 28.0859 41.5391 28.0859C43.2656 28.0859 44.6602 28.6836 45.7227 29.8789C46.793 31.0742 47.3281 32.6641 47.3281 34.6484V34.8008C47.3281 36.0352 47.0898 37.1445 46.6133 38.1289C46.1445 39.1055 45.4688 39.8672 44.5859 40.4141C43.7109 40.9609 42.7031 41.2344 41.5625 41.2344C39.8438 41.2344 38.4492 40.6367 37.3789 39.4414C36.3164 38.2461 35.7852 36.6641 35.7852 34.6953V34.543ZM37.9648 34.8008C37.9648 36.207 38.2891 37.3359 38.9375 38.1875C39.5938 39.0391 40.4688 39.4648 41.5625 39.4648C42.6641 39.4648 43.5391 39.0352 44.1875 38.1758C44.8359 37.3086 45.1602 36.0977 45.1602 34.543C45.1602 33.1523 44.8281 32.0273 44.1641 31.168C43.5078 30.3008 42.6328 29.8672 41.5391 29.8672C40.4688 29.8672 39.6055 30.293 38.9492 31.1445C38.293 31.9961 37.9648 33.2148 37.9648 34.8008ZM57.4297 37.6367C57.4297 37.0508 57.207 36.5977 56.7617 36.2773C56.3242 35.9492 55.5547 35.668 54.4531 35.4336C53.3594 35.1992 52.4883 34.918 51.8398 34.5898C51.1992 34.2617 50.7227 33.8711 50.4102 33.418C50.1055 32.9648 49.9531 32.4258 49.9531 31.8008C49.9531 30.7617 50.3906 29.8828 51.2656 29.1641C52.1484 28.4453 53.2734 28.0859 54.6406 28.0859C56.0781 28.0859 57.2422 28.457 58.1328 29.1992C59.0312 29.9414 59.4805 30.8906 59.4805 32.0469H57.3008C57.3008 31.4531 57.0469 30.9414 56.5391 30.5117C56.0391 30.082 55.4062 29.8672 54.6406 29.8672C53.8516 29.8672 53.2344 30.0391 52.7891 30.3828C52.3438 30.7266 52.1211 31.1758 52.1211 31.7305C52.1211 32.2539 52.3281 32.6484 52.7422 32.9141C53.1562 33.1797 53.9023 33.4336 54.9805 33.6758C56.0664 33.918 56.9453 34.207 57.6172 34.543C58.2891 34.8789 58.7852 35.2852 59.1055 35.7617C59.4336 36.2305 59.5977 36.8047 59.5977 37.4844C59.5977 38.6172 59.1445 39.5273 58.2383 40.2148C57.332 40.8945 56.1562 41.2344 54.7109 41.2344C53.6953 41.2344 52.7969 41.0547 52.0156 40.6953C51.2344 40.3359 50.6211 39.8359 50.1758 39.1953C49.7383 38.5469 49.5195 37.8477 49.5195 37.0977H51.6875C51.7266 37.8242 52.0156 38.4023 52.5547 38.832C53.1016 39.2539 53.8203 39.4648 54.7109 39.4648C55.5312 39.4648 56.1875 39.3008 56.6797 38.9727C57.1797 38.6367 57.4297 38.1914 57.4297 37.6367ZM64.4609 28.3203L64.5195 29.7266C65.4492 28.6328 66.7031 28.0859 68.2812 28.0859C70.0547 28.0859 71.2617 28.7656 71.9023 30.125C72.3242 29.5156 72.8711 29.0234 73.543 28.6484C74.2227 28.2734 75.0234 28.0859 75.9453 28.0859C78.7266 28.0859 80.1406 29.5586 80.1875 32.5039V41H78.0195V32.6328C78.0195 31.7266 77.8125 31.0508 77.3984 30.6055C76.9844 30.1523 76.2891 29.9258 75.3125 29.9258C74.5078 29.9258 73.8398 30.168 73.3086 30.6523C72.7773 31.1289 72.4688 31.7734 72.3828 32.5859V41H70.2031V32.6914C70.2031 30.8477 69.3008 29.9258 67.4961 29.9258C66.0742 29.9258 65.1016 30.5312 64.5781 31.7422V41H62.4102V28.3203H64.4609ZM82.8945 34.543C82.8945 33.3008 83.1367 32.1836 83.6211 31.1914C84.1133 30.1992 84.793 29.4336 85.6602 28.8945C86.5352 28.3555 87.5312 28.0859 88.6484 28.0859C90.375 28.0859 91.7695 28.6836 92.832 29.8789C93.9023 31.0742 94.4375 32.6641 94.4375 34.6484V34.8008C94.4375 36.0352 94.1992 37.1445 93.7227 38.1289C93.2539 39.1055 92.5781 39.8672 91.6953 40.4141C90.8203 40.9609 89.8125 41.2344 88.6719 41.2344C86.9531 41.2344 85.5586 40.6367 84.4883 39.4414C83.4258 38.2461 82.8945 36.6641 82.8945 34.6953V34.543ZM85.0742 34.8008C85.0742 36.207 85.3984 37.3359 86.0469 38.1875C86.7031 39.0391 87.5781 39.4648 88.6719 39.4648C89.7734 39.4648 90.6484 39.0352 91.2969 38.1758C91.9453 37.3086 92.2695 36.0977 92.2695 34.543C92.2695 33.1523 91.9375 32.0273 91.2734 31.168C90.6172 30.3008 89.7422 29.8672 88.6484 29.8672C87.5781 29.8672 86.7148 30.293 86.0586 31.1445C85.4023 31.9961 85.0742 33.2148 85.0742 34.8008ZM99.207 28.3203L99.2773 29.9141C100.246 28.6953 101.512 28.0859 103.074 28.0859C105.754 28.0859 107.105 29.5977 107.129 32.6211V41H104.961V32.6094C104.953 31.6953 104.742 31.0195 104.328 30.582C103.922 30.1445 103.285 29.9258 102.418 29.9258C101.715 29.9258 101.098 30.1133 100.566 30.4883C100.035 30.8633 99.6211 31.3555 99.3242 31.9648V41H97.1562V28.3203H99.207ZM118.227 41C118.102 40.75 118 40.3047 117.922 39.6641C116.914 40.7109 115.711 41.2344 114.312 41.2344C113.062 41.2344 112.035 40.8828 111.23 40.1797C110.434 39.4688 110.035 38.5703 110.035 37.4844C110.035 36.1641 110.535 35.1406 111.535 34.4141C112.543 33.6797 113.957 33.3125 115.777 33.3125H117.887V32.3164C117.887 31.5586 117.66 30.957 117.207 30.5117C116.754 30.0586 116.086 29.832 115.203 29.832C114.43 29.832 113.781 30.0273 113.258 30.418C112.734 30.8086 112.473 31.2812 112.473 31.8359H110.293C110.293 31.2031 110.516 30.5938 110.961 30.0078C111.414 29.4141 112.023 28.9453 112.789 28.6016C113.562 28.2578 114.41 28.0859 115.332 28.0859C116.793 28.0859 117.938 28.4531 118.766 29.1875C119.594 29.9141 120.023 30.918 120.055 32.1992V38.0352C120.055 39.1992 120.203 40.125 120.5 40.8125V41H118.227ZM114.629 39.3477C115.309 39.3477 115.953 39.1719 116.562 38.8203C117.172 38.4688 117.613 38.0117 117.887 37.4492V34.8477H116.188C113.531 34.8477 112.203 35.625 112.203 37.1797C112.203 37.8594 112.43 38.3906 112.883 38.7734C113.336 39.1562 113.918 39.3477 114.629 39.3477ZM131.281 39.7461C130.438 40.7383 129.199 41.2344 127.566 41.2344C126.215 41.2344 125.184 40.8438 124.473 40.0625C123.77 39.2734 123.414 38.1094 123.406 36.5703V28.3203H125.574V36.5117C125.574 38.4336 126.355 39.3945 127.918 39.3945C129.574 39.3945 130.676 38.7773 131.223 37.543V28.3203H133.391V41H131.328L131.281 39.7461ZM139.637 25.25V28.3203H142.004V29.9961H139.637V37.8594C139.637 38.3672 139.742 38.75 139.953 39.0078C140.164 39.2578 140.523 39.3828 141.031 39.3828C141.281 39.3828 141.625 39.3359 142.062 39.2422V41C141.492 41.1562 140.938 41.2344 140.398 41.2344C139.43 41.2344 138.699 40.9414 138.207 40.3555C137.715 39.7695 137.469 38.9375 137.469 37.8594V29.9961H135.16V28.3203H137.469V25.25H139.637ZM146.902 41H144.734V28.3203H146.902V41ZM144.559 24.957C144.559 24.6055 144.664 24.3086 144.875 24.0664C145.094 23.8242 145.414 23.7031 145.836 23.7031C146.258 23.7031 146.578 23.8242 146.797 24.0664C147.016 24.3086 147.125 24.6055 147.125 24.957C147.125 25.3086 147.016 25.6016 146.797 25.8359C146.578 26.0703 146.258 26.1875 145.836 26.1875C145.414 26.1875 145.094 26.0703 144.875 25.8359C144.664 25.6016 144.559 25.3086 144.559 24.957Z" fill="#3B2591"/>
<path d="M255 56H320V0H255V56Z" fill="black"/>
<path d="M270.851 23.0469L274.104 31.168L277.358 23.0469H279.061V33H277.748V29.124L277.871 24.9404L274.604 33H273.599L270.338 24.9609L270.468 29.124V33H269.155V23.0469H270.851ZM287.004 28.3994H282.69V31.9268H287.701V33H281.378V23.0469H287.633V24.127H282.69V27.3262H287.004V28.3994ZM296.984 33H295.665L290.654 25.3301V33H289.335V23.0469H290.654L295.679 30.751V23.0469H296.984V33ZM306.322 23.0469V29.8145C306.318 30.7533 306.021 31.5212 305.434 32.1182C304.85 32.7152 304.057 33.0501 303.055 33.123L302.706 33.1367C301.617 33.1367 300.749 32.8428 300.102 32.2549C299.454 31.667 299.126 30.8581 299.117 29.8281V23.0469H300.416V29.7871C300.416 30.5072 300.614 31.0677 301.011 31.4688C301.407 31.8652 301.972 32.0635 302.706 32.0635C303.449 32.0635 304.016 31.8652 304.408 31.4688C304.805 31.0723 305.003 30.514 305.003 29.7939V23.0469H306.322Z" fill="white"/>
</g>
<defs>
<clipPath id="clip0">
<rect width="320" height="568" fill="white"/>
</clipPath>
</defs>
</svg>
