<svg width="320" height="568" viewBox="0 0 320 568" fill="none" xmlns="http://www.w3.org/2000/svg">
<g clip-path="url(#clip0)">
<rect width="320" height="568" fill="#E0D8E2"/>
<path d="M22.1396 136.927H27.834V138H20.5879V137.016L26.043 129.127H20.6768V128.047H27.6152V129.011L22.1396 136.927ZM33.9043 138C33.8314 137.854 33.7721 137.594 33.7266 137.221C33.1387 137.831 32.4368 138.137 31.6211 138.137C30.8919 138.137 30.2926 137.932 29.8232 137.521C29.3584 137.107 29.126 136.583 29.126 135.949C29.126 135.179 29.4176 134.582 30.001 134.158C30.5889 133.73 31.4137 133.516 32.4756 133.516H33.7061V132.935C33.7061 132.493 33.5739 132.142 33.3096 131.882C33.0452 131.618 32.6556 131.485 32.1406 131.485C31.6895 131.485 31.3112 131.599 31.0059 131.827C30.7005 132.055 30.5479 132.331 30.5479 132.654H29.2764C29.2764 132.285 29.4062 131.93 29.666 131.588C29.9303 131.242 30.2858 130.968 30.7324 130.768C31.1836 130.567 31.6781 130.467 32.2158 130.467C33.068 130.467 33.7357 130.681 34.2188 131.109C34.7018 131.533 34.9525 132.119 34.9707 132.866V136.271C34.9707 136.95 35.0573 137.49 35.2305 137.891V138H33.9043ZM31.8057 137.036C32.2021 137.036 32.5781 136.934 32.9336 136.729C33.2891 136.523 33.5465 136.257 33.7061 135.929V134.411H32.7148C31.1654 134.411 30.3906 134.865 30.3906 135.771C30.3906 136.168 30.5228 136.478 30.7871 136.701C31.0514 136.924 31.391 137.036 31.8057 137.036ZM40.5283 131.738C40.3369 131.706 40.1296 131.69 39.9062 131.69C39.0768 131.69 38.514 132.044 38.2178 132.75V138H36.9531V130.604H38.1836L38.2041 131.458C38.6188 130.797 39.2067 130.467 39.9678 130.467C40.2139 130.467 40.4007 130.499 40.5283 130.562V131.738ZM44.6299 138.137C43.6273 138.137 42.8115 137.809 42.1826 137.152C41.5537 136.492 41.2393 135.61 41.2393 134.507V134.274C41.2393 133.541 41.3783 132.887 41.6562 132.312C41.9388 131.734 42.3307 131.283 42.832 130.959C43.3379 130.631 43.8848 130.467 44.4727 130.467C45.4342 130.467 46.1816 130.784 46.7148 131.417C47.248 132.05 47.5146 132.957 47.5146 134.138V134.664H42.5039C42.5221 135.393 42.734 135.983 43.1396 136.435C43.5498 136.881 44.0693 137.104 44.6982 137.104C45.1449 137.104 45.5231 137.013 45.833 136.831C46.1429 136.649 46.4141 136.407 46.6465 136.106L47.4189 136.708C46.7992 137.66 45.8695 138.137 44.6299 138.137ZM44.4727 131.506C43.9622 131.506 43.5339 131.693 43.1875 132.066C42.8411 132.436 42.627 132.955 42.5449 133.625H46.25V133.529C46.2135 132.887 46.0404 132.39 45.7305 132.039C45.4206 131.684 45.0013 131.506 44.4727 131.506ZM48.6836 134.24C48.6836 133.087 48.9502 132.171 49.4834 131.492C50.0166 130.809 50.723 130.467 51.6025 130.467C52.5049 130.467 53.209 130.786 53.7148 131.424L53.7764 130.604H54.9316V137.822C54.9316 138.779 54.6468 139.534 54.0771 140.085C53.512 140.636 52.751 140.912 51.7939 140.912C51.2607 140.912 50.7389 140.798 50.2285 140.57C49.7181 140.342 49.3285 140.03 49.0596 139.634L49.7158 138.875C50.2581 139.545 50.9212 139.88 51.7051 139.88C52.3203 139.88 52.7988 139.707 53.1406 139.36C53.487 139.014 53.6602 138.526 53.6602 137.897V137.262C53.1543 137.845 52.4639 138.137 51.5889 138.137C50.723 138.137 50.0212 137.788 49.4834 137.091C48.9502 136.394 48.6836 135.443 48.6836 134.24ZM49.9551 134.384C49.9551 135.218 50.126 135.874 50.4678 136.353C50.8096 136.826 51.2881 137.063 51.9033 137.063C52.7008 137.063 53.2865 136.701 53.6602 135.977V132.6C53.2728 131.893 52.6917 131.54 51.917 131.54C51.3018 131.54 50.821 131.779 50.4746 132.258C50.1283 132.736 49.9551 133.445 49.9551 134.384ZM58.2197 138H56.9551V130.604H58.2197V138ZM56.8525 128.642C56.8525 128.437 56.9141 128.263 57.0371 128.122C57.1647 127.981 57.3516 127.91 57.5977 127.91C57.8438 127.91 58.0306 127.981 58.1582 128.122C58.2858 128.263 58.3496 128.437 58.3496 128.642C58.3496 128.847 58.2858 129.018 58.1582 129.154C58.0306 129.291 57.8438 129.359 57.5977 129.359C57.3516 129.359 57.1647 129.291 57.0371 129.154C56.9141 129.018 56.8525 128.847 56.8525 128.642ZM64.5566 136.038C64.5566 135.696 64.4268 135.432 64.167 135.245C63.9118 135.054 63.4629 134.89 62.8203 134.753C62.1823 134.616 61.6742 134.452 61.2959 134.261C60.9222 134.069 60.6442 133.841 60.4619 133.577C60.2842 133.313 60.1953 132.998 60.1953 132.634C60.1953 132.028 60.4505 131.515 60.9609 131.096C61.4759 130.676 62.1322 130.467 62.9297 130.467C63.7682 130.467 64.4473 130.683 64.9668 131.116C65.4909 131.549 65.7529 132.103 65.7529 132.777H64.4814C64.4814 132.431 64.3333 132.132 64.0371 131.882C63.7454 131.631 63.3763 131.506 62.9297 131.506C62.4694 131.506 62.1094 131.606 61.8496 131.807C61.5898 132.007 61.46 132.269 61.46 132.593C61.46 132.898 61.5807 133.128 61.8223 133.283C62.0638 133.438 62.499 133.586 63.1279 133.728C63.7614 133.869 64.2741 134.037 64.666 134.233C65.0579 134.429 65.3473 134.666 65.5342 134.944C65.7256 135.218 65.8213 135.553 65.8213 135.949C65.8213 136.61 65.557 137.141 65.0283 137.542C64.4997 137.938 63.8138 138.137 62.9707 138.137C62.3783 138.137 61.8542 138.032 61.3984 137.822C60.9427 137.613 60.585 137.321 60.3252 136.947C60.07 136.569 59.9424 136.161 59.9424 135.724H61.207C61.2298 136.147 61.3984 136.485 61.7129 136.735C62.0319 136.981 62.4512 137.104 62.9707 137.104C63.4492 137.104 63.832 137.009 64.1191 136.817C64.4108 136.621 64.5566 136.362 64.5566 136.038ZM69.1846 128.812V130.604H70.5654V131.581H69.1846V136.168C69.1846 136.464 69.2461 136.688 69.3691 136.838C69.4922 136.984 69.7018 137.057 69.998 137.057C70.1439 137.057 70.3444 137.029 70.5996 136.975V138C70.2669 138.091 69.9434 138.137 69.6289 138.137C69.0638 138.137 68.6377 137.966 68.3506 137.624C68.0635 137.282 67.9199 136.797 67.9199 136.168V131.581H66.5732V130.604H67.9199V128.812H69.1846ZM75.624 131.738C75.4326 131.706 75.2253 131.69 75.002 131.69C74.1725 131.69 73.6097 132.044 73.3135 132.75V138H72.0488V130.604H73.2793L73.2998 131.458C73.7145 130.797 74.3024 130.467 75.0635 130.467C75.3096 130.467 75.4964 130.499 75.624 130.562V131.738ZM76.3213 134.233C76.3213 133.509 76.4626 132.857 76.7451 132.278C77.0322 131.7 77.4287 131.253 77.9346 130.938C78.445 130.624 79.026 130.467 79.6777 130.467C80.6849 130.467 81.4984 130.815 82.1182 131.513C82.7425 132.21 83.0547 133.137 83.0547 134.295V134.384C83.0547 135.104 82.9157 135.751 82.6377 136.325C82.3643 136.895 81.9701 137.339 81.4551 137.658C80.9447 137.977 80.3568 138.137 79.6914 138.137C78.6888 138.137 77.8753 137.788 77.251 137.091C76.6312 136.394 76.3213 135.471 76.3213 134.322V134.233ZM77.5928 134.384C77.5928 135.204 77.7819 135.863 78.1602 136.359C78.543 136.856 79.0534 137.104 79.6914 137.104C80.334 137.104 80.8444 136.854 81.2227 136.353C81.6009 135.847 81.79 135.14 81.79 134.233C81.79 133.422 81.5964 132.766 81.209 132.265C80.8262 131.759 80.3158 131.506 79.6777 131.506C79.0534 131.506 78.5498 131.754 78.167 132.251C77.7842 132.748 77.5928 133.459 77.5928 134.384ZM86.9717 136.284L88.8037 130.604H90.0957L87.4434 138H86.4795L83.7998 130.604H85.0918L86.9717 136.284ZM95.7695 138C95.6966 137.854 95.6374 137.594 95.5918 137.221C95.0039 137.831 94.3021 138.137 93.4863 138.137C92.7572 138.137 92.1579 137.932 91.6885 137.521C91.2236 137.107 90.9912 136.583 90.9912 135.949C90.9912 135.179 91.2829 134.582 91.8662 134.158C92.4541 133.73 93.279 133.516 94.3408 133.516H95.5713V132.935C95.5713 132.493 95.4391 132.142 95.1748 131.882C94.9105 131.618 94.5208 131.485 94.0059 131.485C93.5547 131.485 93.1764 131.599 92.8711 131.827C92.5658 132.055 92.4131 132.331 92.4131 132.654H91.1416C91.1416 132.285 91.2715 131.93 91.5312 131.588C91.7956 131.242 92.151 130.968 92.5977 130.768C93.0488 130.567 93.5433 130.467 94.0811 130.467C94.9333 130.467 95.6009 130.681 96.084 131.109C96.5671 131.533 96.8177 132.119 96.8359 132.866V136.271C96.8359 136.95 96.9225 137.49 97.0957 137.891V138H95.7695ZM93.6709 137.036C94.0674 137.036 94.4434 136.934 94.7988 136.729C95.1543 136.523 95.4118 136.257 95.5713 135.929V134.411H94.5801C93.0306 134.411 92.2559 134.865 92.2559 135.771C92.2559 136.168 92.388 136.478 92.6523 136.701C92.9167 136.924 93.2562 137.036 93.6709 137.036ZM100.534 128.812V130.604H101.915V131.581H100.534V136.168C100.534 136.464 100.596 136.688 100.719 136.838C100.842 136.984 101.051 137.057 101.348 137.057C101.493 137.057 101.694 137.029 101.949 136.975V138C101.617 138.091 101.293 138.137 100.979 138.137C100.413 138.137 99.9873 137.966 99.7002 137.624C99.4131 137.282 99.2695 136.797 99.2695 136.168V131.581H97.9229V130.604H99.2695V128.812H100.534Z" fill="#3B2591"/>
<path d="M108.129 139.846H107.11V128.047H108.129V139.846Z" fill="black"/>
<path d="M115.272 134.104V138H113.96V128.047H117.631C118.72 128.047 119.572 128.325 120.188 128.881C120.807 129.437 121.117 130.173 121.117 131.089C121.117 132.055 120.814 132.8 120.208 133.324C119.606 133.844 118.743 134.104 117.617 134.104H115.272ZM115.272 133.03H117.631C118.333 133.03 118.87 132.866 119.244 132.538C119.618 132.205 119.805 131.727 119.805 131.103C119.805 130.51 119.618 130.036 119.244 129.681C118.87 129.325 118.358 129.141 117.706 129.127H115.272V133.03ZM126.169 131.738C125.978 131.706 125.77 131.69 125.547 131.69C124.717 131.69 124.155 132.044 123.858 132.75V138H122.594V130.604H123.824L123.845 131.458C124.259 130.797 124.847 130.467 125.608 130.467C125.854 130.467 126.041 130.499 126.169 130.562V131.738ZM124.419 128.662L125.444 127.5H126.538V127.568L124.802 129.441H124.029L122.313 127.568V127.5H123.387L124.419 128.662ZM128.712 138H127.447V130.604H128.712V138ZM127.345 128.642C127.345 128.437 127.406 128.263 127.529 128.122C127.657 127.981 127.844 127.91 128.09 127.91C128.336 127.91 128.523 127.981 128.65 128.122C128.778 128.263 128.842 128.437 128.842 128.642C128.842 128.847 128.778 129.018 128.65 129.154C128.523 129.291 128.336 129.359 128.09 129.359C127.844 129.359 127.657 129.291 127.529 129.154C127.406 129.018 127.345 128.847 127.345 128.642ZM132.007 131.499C132.567 130.811 133.297 130.467 134.194 130.467C135.757 130.467 136.546 131.349 136.56 133.112V138H135.295V133.105C135.29 132.572 135.167 132.178 134.926 131.923C134.689 131.668 134.317 131.54 133.812 131.54C133.401 131.54 133.041 131.649 132.731 131.868C132.422 132.087 132.18 132.374 132.007 132.729V138H130.742V127.5H132.007V131.499ZM139.827 138H138.562V127.5H139.827V138ZM146.424 138C146.351 137.854 146.292 137.594 146.246 137.221C145.658 137.831 144.956 138.137 144.141 138.137C143.411 138.137 142.812 137.932 142.343 137.521C141.878 137.107 141.646 136.583 141.646 135.949C141.646 135.179 141.937 134.582 142.521 134.158C143.108 133.73 143.933 133.516 144.995 133.516H146.226V132.935C146.226 132.493 146.093 132.142 145.829 131.882C145.565 131.618 145.175 131.485 144.66 131.485C144.209 131.485 143.831 131.599 143.525 131.827C143.22 132.055 143.067 132.331 143.067 132.654H141.796C141.796 132.285 141.926 131.93 142.186 131.588C142.45 131.242 142.805 130.968 143.252 130.768C143.703 130.567 144.198 130.467 144.735 130.467C145.588 130.467 146.255 130.681 146.738 131.109C147.221 131.533 147.472 132.119 147.49 132.866V136.271C147.49 136.95 147.577 137.49 147.75 137.891V138H146.424ZM144.325 137.036C144.722 137.036 145.098 136.934 145.453 136.729C145.809 136.523 146.066 136.257 146.226 135.929V134.411H145.234C143.685 134.411 142.91 134.865 142.91 135.771C142.91 136.168 143.042 136.478 143.307 136.701C143.571 136.924 143.91 137.036 144.325 137.036ZM145.494 127.5H147.025L145.193 129.51H144.175L145.494 127.5ZM153.779 136.038C153.779 135.696 153.649 135.432 153.39 135.245C153.134 135.054 152.686 134.89 152.043 134.753C151.405 134.616 150.897 134.452 150.519 134.261C150.145 134.069 149.867 133.841 149.685 133.577C149.507 133.313 149.418 132.998 149.418 132.634C149.418 132.028 149.673 131.515 150.184 131.096C150.699 130.676 151.355 130.467 152.152 130.467C152.991 130.467 153.67 130.683 154.189 131.116C154.714 131.549 154.976 132.103 154.976 132.777H153.704C153.704 132.431 153.556 132.132 153.26 131.882C152.968 131.631 152.599 131.506 152.152 131.506C151.692 131.506 151.332 131.606 151.072 131.807C150.812 132.007 150.683 132.269 150.683 132.593C150.683 132.898 150.803 133.128 151.045 133.283C151.286 133.438 151.722 133.586 152.351 133.728C152.984 133.869 153.497 134.037 153.889 134.233C154.281 134.429 154.57 134.666 154.757 134.944C154.948 135.218 155.044 135.553 155.044 135.949C155.044 136.61 154.78 137.141 154.251 137.542C153.722 137.938 153.036 138.137 152.193 138.137C151.601 138.137 151.077 138.032 150.621 137.822C150.165 137.613 149.808 137.321 149.548 136.947C149.293 136.569 149.165 136.161 149.165 135.724H150.43C150.452 136.147 150.621 136.485 150.936 136.735C151.255 136.981 151.674 137.104 152.193 137.104C152.672 137.104 153.055 137.009 153.342 136.817C153.633 136.621 153.779 136.362 153.779 136.038ZM158.065 138H156.801V130.604H158.065V138ZM156.698 128.642C156.698 128.437 156.76 128.263 156.883 128.122C157.01 127.981 157.197 127.91 157.443 127.91C157.689 127.91 157.876 127.981 158.004 128.122C158.132 128.263 158.195 128.437 158.195 128.642C158.195 128.847 158.132 129.018 158.004 129.154C157.876 129.291 157.689 129.359 157.443 129.359C157.197 129.359 157.01 129.291 156.883 129.154C156.76 129.018 156.698 128.847 156.698 128.642ZM161.812 128.812V130.604H163.192V131.581H161.812V136.168C161.812 136.464 161.873 136.688 161.996 136.838C162.119 136.984 162.329 137.057 162.625 137.057C162.771 137.057 162.971 137.029 163.227 136.975V138C162.894 138.091 162.57 138.137 162.256 138.137C161.691 138.137 161.265 137.966 160.978 137.624C160.69 137.282 160.547 136.797 160.547 136.168V131.581H159.2V130.604H160.547V128.812H161.812ZM172.455 136.038C172.455 135.696 172.325 135.432 172.065 135.245C171.81 135.054 171.361 134.89 170.719 134.753C170.081 134.616 169.573 134.452 169.194 134.261C168.821 134.069 168.543 133.841 168.36 133.577C168.183 133.313 168.094 132.998 168.094 132.634C168.094 132.028 168.349 131.515 168.859 131.096C169.374 130.676 170.031 130.467 170.828 130.467C171.667 130.467 172.346 130.683 172.865 131.116C173.389 131.549 173.651 132.103 173.651 132.777H172.38C172.38 132.431 172.232 132.132 171.936 131.882C171.644 131.631 171.275 131.506 170.828 131.506C170.368 131.506 170.008 131.606 169.748 131.807C169.488 132.007 169.358 132.269 169.358 132.593C169.358 132.898 169.479 133.128 169.721 133.283C169.962 133.438 170.397 133.586 171.026 133.728C171.66 133.869 172.173 134.037 172.564 134.233C172.956 134.429 173.246 134.666 173.433 134.944C173.624 135.218 173.72 135.553 173.72 135.949C173.72 136.61 173.455 137.141 172.927 137.542C172.398 137.938 171.712 138.137 170.869 138.137C170.277 138.137 169.753 138.032 169.297 137.822C168.841 137.613 168.483 137.321 168.224 136.947C167.968 136.569 167.841 136.161 167.841 135.724H169.105C169.128 136.147 169.297 136.485 169.611 136.735C169.93 136.981 170.35 137.104 170.869 137.104C171.348 137.104 171.73 137.009 172.018 136.817C172.309 136.621 172.455 136.362 172.455 136.038ZM178.437 138.137C177.434 138.137 176.618 137.809 175.989 137.152C175.36 136.492 175.046 135.61 175.046 134.507V134.274C175.046 133.541 175.185 132.887 175.463 132.312C175.745 131.734 176.137 131.283 176.639 130.959C177.145 130.631 177.691 130.467 178.279 130.467C179.241 130.467 179.988 130.784 180.521 131.417C181.055 132.05 181.321 132.957 181.321 134.138V134.664H176.311C176.329 135.393 176.541 135.983 176.946 136.435C177.356 136.881 177.876 137.104 178.505 137.104C178.951 137.104 179.33 137.013 179.64 136.831C179.95 136.649 180.221 136.407 180.453 136.106L181.226 136.708C180.606 137.66 179.676 138.137 178.437 138.137ZM178.279 131.506C177.769 131.506 177.34 131.693 176.994 132.066C176.648 132.436 176.434 132.955 176.352 133.625H180.057V133.529C180.02 132.887 179.847 132.39 179.537 132.039C179.227 131.684 178.808 131.506 178.279 131.506Z" fill="#7D7D7D"/>
<path d="M0.5 561.5H319.5V374.5H0.5V561.5Z" fill="#1C0A62" stroke="#3B2591"/>
<rect x="20.5" y="283.409" width="71.4796" height="20.0909" rx="10.0455" stroke="#3B2591"/>
<rect x="20.5" y="231.773" width="265" height="26.6364" rx="13.3182" stroke="#3B2591"/>
<rect x="20.5" y="176.5" width="265" height="26.6364" rx="13.3182" stroke="#3B2591"/>
<path d="M0 568H320V0H0V568Z" fill="black"/>
<path d="M132.329 77.0146C132.329 78.2686 132.118 79.3643 131.696 80.3018C131.274 81.2334 130.677 81.9453 129.903 82.4375C129.13 82.9297 128.228 83.1758 127.196 83.1758C126.188 83.1758 125.295 82.9297 124.516 82.4375C123.736 81.9395 123.13 81.2334 122.696 80.3193C122.269 79.3994 122.049 78.3359 122.037 77.1289V76.2061C122.037 74.9756 122.251 73.8887 122.679 72.9453C123.106 72.002 123.71 71.2812 124.489 70.7832C125.274 70.2793 126.171 70.0273 127.179 70.0273C128.204 70.0273 129.106 70.2764 129.886 70.7744C130.671 71.2666 131.274 71.9844 131.696 72.9277C132.118 73.8652 132.329 74.958 132.329 76.2061V77.0146ZM130.65 76.1885C130.65 74.6709 130.346 73.5078 129.736 72.6992C129.127 71.8848 128.274 71.4775 127.179 71.4775C126.112 71.4775 125.271 71.8848 124.656 72.6992C124.047 73.5078 123.733 74.6328 123.716 76.0742V77.0146C123.716 78.4854 124.023 79.6426 124.639 80.4863C125.26 81.3242 126.112 81.7432 127.196 81.7432C128.286 81.7432 129.13 81.3477 129.728 80.5566C130.325 79.7598 130.633 78.6201 130.65 77.1377V76.1885ZM144.941 83C144.848 82.8125 144.771 82.4785 144.713 81.998C143.957 82.7832 143.055 83.1758 142.006 83.1758C141.068 83.1758 140.298 82.9121 139.694 82.3848C139.097 81.8516 138.798 81.1777 138.798 80.3633C138.798 79.373 139.173 78.6055 139.923 78.0605C140.679 77.5098 141.739 77.2344 143.104 77.2344H144.687V76.4873C144.687 75.9189 144.517 75.4678 144.177 75.1338C143.837 74.7939 143.336 74.624 142.674 74.624C142.094 74.624 141.607 74.7705 141.215 75.0635C140.822 75.3564 140.626 75.7109 140.626 76.127H138.991C138.991 75.6523 139.158 75.1953 139.492 74.7559C139.832 74.3105 140.289 73.959 140.863 73.7012C141.443 73.4434 142.079 73.3145 142.771 73.3145C143.866 73.3145 144.725 73.5898 145.346 74.1406C145.967 74.6855 146.289 75.4385 146.312 76.3994V80.7764C146.312 81.6494 146.424 82.3438 146.646 82.8594V83H144.941ZM142.243 81.7607C142.753 81.7607 143.236 81.6289 143.693 81.3652C144.15 81.1016 144.481 80.7588 144.687 80.3369V78.3857H143.412C141.42 78.3857 140.424 78.9688 140.424 80.1348C140.424 80.6445 140.594 81.043 140.934 81.3301C141.273 81.6172 141.71 81.7607 142.243 81.7607ZM156.895 78.3506C156.895 79.7979 156.563 80.9639 155.901 81.8486C155.239 82.7334 154.343 83.1758 153.212 83.1758C152.058 83.1758 151.149 82.8096 150.487 82.0771V86.6562H148.861V73.4902H150.347L150.426 74.5449C151.088 73.7246 152.008 73.3145 153.186 73.3145C154.328 73.3145 155.23 73.7451 155.893 74.6064C156.561 75.4678 156.895 76.666 156.895 78.2012V78.3506ZM155.269 78.166C155.269 77.0938 155.04 76.2471 154.583 75.626C154.126 75.0049 153.499 74.6943 152.702 74.6943C151.718 74.6943 150.979 75.1309 150.487 76.0039V80.5479C150.974 81.415 151.718 81.8486 152.72 81.8486C153.499 81.8486 154.117 81.541 154.574 80.9258C155.037 80.3047 155.269 79.3848 155.269 78.166ZM160.735 83H159.109V69.5H160.735V83ZM165.112 83H163.486V73.4902H165.112V83ZM163.354 70.9678C163.354 70.7041 163.434 70.4814 163.592 70.2998C163.756 70.1182 163.996 70.0273 164.312 70.0273C164.629 70.0273 164.869 70.1182 165.033 70.2998C165.197 70.4814 165.279 70.7041 165.279 70.9678C165.279 71.2314 165.197 71.4512 165.033 71.627C164.869 71.8027 164.629 71.8906 164.312 71.8906C163.996 71.8906 163.756 71.8027 163.592 71.627C163.434 71.4512 163.354 71.2314 163.354 70.9678ZM170.377 78.5967L169.357 79.6602V83H167.731V69.5H169.357V77.665L170.228 76.6191L173.189 73.4902H175.167L171.467 77.4629L175.598 83H173.69L170.377 78.5967ZM182.717 83C182.623 82.8125 182.547 82.4785 182.488 81.998C181.732 82.7832 180.83 83.1758 179.781 83.1758C178.844 83.1758 178.073 82.9121 177.47 82.3848C176.872 81.8516 176.573 81.1777 176.573 80.3633C176.573 79.373 176.948 78.6055 177.698 78.0605C178.454 77.5098 179.515 77.2344 180.88 77.2344H182.462V76.4873C182.462 75.9189 182.292 75.4678 181.952 75.1338C181.612 74.7939 181.111 74.624 180.449 74.624C179.869 74.624 179.383 74.7705 178.99 75.0635C178.598 75.3564 178.401 75.7109 178.401 76.127H176.767C176.767 75.6523 176.934 75.1953 177.268 74.7559C177.607 74.3105 178.064 73.959 178.639 73.7012C179.219 73.4434 179.854 73.3145 180.546 73.3145C181.642 73.3145 182.5 73.5898 183.121 74.1406C183.742 74.6855 184.064 75.4385 184.088 76.3994V80.7764C184.088 81.6494 184.199 82.3438 184.422 82.8594V83H182.717ZM180.019 81.7607C180.528 81.7607 181.012 81.6289 181.469 81.3652C181.926 81.1016 182.257 80.7588 182.462 80.3369V78.3857H181.188C179.195 78.3857 178.199 78.9688 178.199 80.1348C178.199 80.6445 178.369 81.043 178.709 81.3301C179.049 81.6172 179.485 81.7607 180.019 81.7607ZM190.451 81.8486C191.031 81.8486 191.538 81.6729 191.972 81.3213C192.405 80.9697 192.646 80.5303 192.692 80.0029H194.23C194.201 80.5479 194.014 81.0664 193.668 81.5586C193.322 82.0508 192.859 82.4434 192.279 82.7363C191.705 83.0293 191.096 83.1758 190.451 83.1758C189.156 83.1758 188.125 82.7451 187.357 81.8838C186.596 81.0166 186.215 79.833 186.215 78.333V78.0605C186.215 77.1348 186.385 76.3115 186.725 75.5908C187.064 74.8701 187.551 74.3105 188.184 73.9121C188.822 73.5137 189.575 73.3145 190.442 73.3145C191.509 73.3145 192.394 73.6338 193.097 74.2725C193.806 74.9111 194.184 75.7402 194.23 76.7598H192.692C192.646 76.1445 192.411 75.6406 191.989 75.248C191.573 74.8496 191.058 74.6504 190.442 74.6504C189.616 74.6504 188.975 74.9492 188.518 75.5469C188.066 76.1387 187.841 76.9971 187.841 78.1221V78.4297C187.841 79.5254 188.066 80.3691 188.518 80.9609C188.969 81.5527 189.613 81.8486 190.451 81.8486ZM197.825 83H196.199V73.4902H197.825V83ZM196.067 70.9678C196.067 70.7041 196.146 70.4814 196.305 70.2998C196.469 70.1182 196.709 70.0273 197.025 70.0273C197.342 70.0273 197.582 70.1182 197.746 70.2998C197.91 70.4814 197.992 70.7041 197.992 70.9678C197.992 71.2314 197.91 71.4512 197.746 71.627C197.582 71.8027 197.342 71.8906 197.025 71.8906C196.709 71.8906 196.469 71.8027 196.305 71.627C196.146 71.4512 196.067 71.2314 196.067 70.9678Z" fill="white"/>
<path d="M132.737 128.05L131.173 129.676V134H129.485V121.203H131.173V127.531L136.859 121.203H138.898L133.862 126.854L139.294 134H137.272L132.737 128.05ZM139.839 129.157C139.839 128.226 140.021 127.388 140.384 126.644C140.753 125.899 141.263 125.325 141.913 124.921C142.569 124.517 143.316 124.314 144.154 124.314C145.449 124.314 146.495 124.763 147.292 125.659C148.095 126.556 148.496 127.748 148.496 129.236V129.351C148.496 130.276 148.317 131.108 147.96 131.847C147.608 132.579 147.102 133.15 146.439 133.561C145.783 133.971 145.027 134.176 144.172 134.176C142.883 134.176 141.837 133.728 141.034 132.831C140.237 131.935 139.839 130.748 139.839 129.271V129.157ZM141.474 129.351C141.474 130.405 141.717 131.252 142.203 131.891C142.695 132.529 143.352 132.849 144.172 132.849C144.998 132.849 145.654 132.526 146.141 131.882C146.627 131.231 146.87 130.323 146.87 129.157C146.87 128.114 146.621 127.271 146.123 126.626C145.631 125.976 144.975 125.65 144.154 125.65C143.352 125.65 142.704 125.97 142.212 126.608C141.72 127.247 141.474 128.161 141.474 129.351ZM152.073 124.49L152.126 125.686C152.853 124.771 153.802 124.314 154.974 124.314C156.983 124.314 157.997 125.448 158.015 127.716V134H156.389V127.707C156.383 127.021 156.225 126.515 155.914 126.187C155.609 125.858 155.132 125.694 154.481 125.694C153.954 125.694 153.491 125.835 153.093 126.116C152.694 126.397 152.384 126.767 152.161 127.224V134H150.535V124.49H152.073ZM162.673 122.188V124.49H164.448V125.747H162.673V131.645C162.673 132.025 162.752 132.312 162.91 132.506C163.068 132.693 163.338 132.787 163.719 132.787C163.906 132.787 164.164 132.752 164.492 132.682V134C164.064 134.117 163.648 134.176 163.244 134.176C162.518 134.176 161.97 133.956 161.601 133.517C161.231 133.077 161.047 132.453 161.047 131.645V125.747H159.315V124.49H161.047V122.188H162.673ZM172.227 134C172.133 133.812 172.057 133.479 171.998 132.998C171.242 133.783 170.34 134.176 169.291 134.176C168.354 134.176 167.583 133.912 166.979 133.385C166.382 132.852 166.083 132.178 166.083 131.363C166.083 130.373 166.458 129.605 167.208 129.061C167.964 128.51 169.024 128.234 170.39 128.234H171.972V127.487C171.972 126.919 171.802 126.468 171.462 126.134C171.122 125.794 170.621 125.624 169.959 125.624C169.379 125.624 168.893 125.771 168.5 126.063C168.107 126.356 167.911 126.711 167.911 127.127H166.276C166.276 126.652 166.443 126.195 166.777 125.756C167.117 125.311 167.574 124.959 168.148 124.701C168.729 124.443 169.364 124.314 170.056 124.314C171.151 124.314 172.01 124.59 172.631 125.141C173.252 125.686 173.574 126.438 173.598 127.399V131.776C173.598 132.649 173.709 133.344 173.932 133.859V134H172.227ZM169.528 132.761C170.038 132.761 170.521 132.629 170.979 132.365C171.436 132.102 171.767 131.759 171.972 131.337V129.386H170.697C168.705 129.386 167.709 129.969 167.709 131.135C167.709 131.645 167.879 132.043 168.219 132.33C168.559 132.617 168.995 132.761 169.528 132.761ZM178.801 129.597L177.781 130.66V134H176.155V120.5H177.781V128.665L178.651 127.619L181.613 124.49H183.591L179.891 128.463L184.021 134H182.114L178.801 129.597ZM187.476 122.188V124.49H189.251V125.747H187.476V131.645C187.476 132.025 187.555 132.312 187.713 132.506C187.871 132.693 188.141 132.787 188.521 132.787C188.709 132.787 188.967 132.752 189.295 132.682V134C188.867 134.117 188.451 134.176 188.047 134.176C187.32 134.176 186.772 133.956 186.403 133.517C186.034 133.077 185.85 132.453 185.85 131.645V125.747H184.118V124.49H185.85V122.188H187.476ZM194.27 131.618L196.484 124.49H198.225L194.401 135.468C193.81 137.05 192.869 137.841 191.58 137.841L191.272 137.814L190.666 137.7V136.382L191.105 136.417C191.656 136.417 192.084 136.306 192.389 136.083C192.699 135.86 192.954 135.453 193.153 134.861L193.514 133.895L190.121 124.49H191.896L194.27 131.618Z" fill="white"/>
<line y1="-0.5" x2="31.8277" y2="-0.5" transform="matrix(-0.691223 0.722642 0.722642 0.691223 255 14)" stroke="white"/>
<line x1="233.361" y1="13.6544" x2="255.361" y2="36.6544" stroke="white"/>
<path d="M267.477 27.8418C267.354 28.8945 266.964 29.708 266.308 30.2822C265.656 30.8519 264.788 31.1367 263.703 31.1367C262.527 31.1367 261.584 30.7152 260.873 29.8721C260.167 29.029 259.813 27.901 259.813 26.4883V25.5312C259.813 24.6061 259.978 23.7926 260.306 23.0908C260.638 22.389 261.108 21.8512 261.714 21.4775C262.32 21.0993 263.022 20.9102 263.819 20.9102C264.877 20.9102 265.724 21.2064 266.362 21.7988C267 22.3867 267.372 23.2025 267.477 24.2461H266.157C266.043 23.4531 265.795 22.8789 265.412 22.5234C265.034 22.168 264.503 21.9902 263.819 21.9902C262.981 21.9902 262.322 22.3001 261.844 22.9199C261.37 23.5397 261.133 24.4215 261.133 25.5654V26.5293C261.133 27.6094 261.358 28.4684 261.81 29.1064C262.261 29.7445 262.892 30.0635 263.703 30.0635C264.432 30.0635 264.991 29.8994 265.378 29.5713C265.77 29.2386 266.03 28.6621 266.157 27.8418H267.477ZM270.594 29.9268H275.311V31H269.274V21.0469H270.594V29.9268ZM284.013 26.3447C284.013 27.32 283.849 28.1722 283.521 28.9014C283.192 29.626 282.728 30.1797 282.126 30.5625C281.524 30.9453 280.823 31.1367 280.021 31.1367C279.237 31.1367 278.542 30.9453 277.936 30.5625C277.329 30.1751 276.858 29.626 276.521 28.915C276.188 28.1995 276.017 27.3724 276.008 26.4336V25.7158C276.008 24.7588 276.174 23.9134 276.507 23.1797C276.84 22.446 277.309 21.8854 277.915 21.498C278.526 21.1061 279.223 20.9102 280.007 20.9102C280.804 20.9102 281.506 21.1038 282.112 21.4912C282.723 21.874 283.192 22.4323 283.521 23.166C283.849 23.8952 284.013 24.7451 284.013 25.7158V26.3447ZM282.707 25.7021C282.707 24.5218 282.47 23.6172 281.996 22.9883C281.522 22.3548 280.859 22.0381 280.007 22.0381C279.177 22.0381 278.523 22.3548 278.045 22.9883C277.571 23.6172 277.327 24.4922 277.313 25.6133V26.3447C277.313 27.4886 277.553 28.3887 278.031 29.0449C278.514 29.6966 279.177 30.0225 280.021 30.0225C280.868 30.0225 281.524 29.7148 281.989 29.0996C282.454 28.4798 282.693 27.5934 282.707 26.4404V25.7021ZM288.914 26.5635C287.788 26.2399 286.968 25.8434 286.453 25.374C285.943 24.9001 285.688 24.3167 285.688 23.624C285.688 22.8402 286 22.193 286.624 21.6826C287.253 21.1676 288.069 20.9102 289.071 20.9102C289.755 20.9102 290.363 21.0423 290.896 21.3066C291.434 21.571 291.849 21.9355 292.141 22.4004C292.437 22.8652 292.585 23.3734 292.585 23.9248H291.266C291.266 23.3232 291.074 22.8516 290.691 22.5098C290.309 22.1634 289.769 21.9902 289.071 21.9902C288.424 21.9902 287.918 22.1338 287.554 22.4209C287.194 22.7035 287.014 23.0977 287.014 23.6035C287.014 24.0091 287.185 24.3532 287.526 24.6357C287.873 24.9137 288.458 25.1689 289.283 25.4014C290.113 25.6338 290.76 25.8913 291.225 26.1738C291.694 26.4518 292.04 26.7777 292.264 27.1514C292.492 27.5251 292.605 27.9648 292.605 28.4707C292.605 29.2773 292.291 29.9245 291.662 30.4121C291.033 30.8952 290.192 31.1367 289.14 31.1367C288.456 31.1367 287.818 31.0068 287.226 30.7471C286.633 30.4827 286.175 30.1227 285.852 29.667C285.533 29.2113 285.373 28.694 285.373 28.1152H286.692C286.692 28.7168 286.913 29.193 287.355 29.5439C287.802 29.8903 288.397 30.0635 289.14 30.0635C289.832 30.0635 290.363 29.9222 290.732 29.6396C291.102 29.3571 291.286 28.972 291.286 28.4844C291.286 27.9967 291.115 27.6208 290.773 27.3564C290.432 27.0876 289.812 26.8232 288.914 26.5635ZM299.92 26.3994H295.606V29.9268H300.617V31H294.294V21.0469H300.549V22.127H295.606V25.3262H299.92V26.3994Z" fill="white"/>
</g>
<defs>
<clipPath id="clip0">
<rect width="320" height="568" fill="white"/>
</clipPath>
</defs>
</svg>
