<svg width="129" height="159" viewBox="0 0 129 159" fill="none" xmlns="http://www.w3.org/2000/svg">
<path d="M117.371 78.5776C117.371 107.705 94.043 131.308 65.279 131.308C36.5151 131.308 13.187 107.705 13.187 78.5776C13.187 49.45 36.5151 25.8477 65.279 25.8477C94.043 25.8477 117.371 49.45 117.371 78.5776Z" stroke="white"/>
<path d="M117.34 68.3881C117.34 106.001 93.4142 136.276 64.1369 136.276C34.8597 136.276 10.9341 106.001 10.9341 68.3881C10.9341 30.7752 34.8597 0.5 64.1369 0.5C93.4142 0.5 117.34 30.7752 117.34 68.3881Z" stroke="white"/>
<path d="M42.7987 132.06L1 158M91.614 132.06L128 158" stroke="white"/>
</svg>
