<svg width="113" height="157" viewBox="0 0 113 157" fill="none" xmlns="http://www.w3.org/2000/svg">
<path d="M8.2998 64.6151C8.2998 89.6862 24.0956 122.72 52.5101 122.72C80.9246 122.72 103.959 91.5046 103.959 66.4335C88.4931 51.2763 77.6918 40.2045 70.5879 31.9655C59.8985 19.568 57.5813 13.5849 60.3414 9.74902" stroke="white"/>
<path d="M101.776 82.7354C101.776 82.7354 114.379 104.196 111.6 50.0385C108.822 -4.11893 75.0828 -5.8399 60.3965 9.14197" stroke="white"/>
<path d="M2.69236 41.4175C-0.444248 89.0392 4.132 67.8547 4.132 67.8547C4.132 67.8547 32.0161 46.9439 41.9393 39.4094C51.8624 31.8748 60.4956 9.14192 60.4956 9.14192C50.2448 0.996665 31.7718 -2.94284 18.4214 6.49241C10.1793 12.3174 3.88963 23.2399 2.69236 41.4175Z" stroke="white"/>
<path d="M39.7528 68.8674C39.7528 69.7825 39.4894 70.5898 39.0891 71.1553C38.6878 71.7221 38.1799 72.0116 37.6728 72.0116C37.1657 72.0116 36.6578 71.7221 36.2565 71.1553C35.8562 70.5898 35.5928 69.7825 35.5928 68.8674C35.5928 67.9523 35.8562 67.1449 36.2565 66.5794C36.6578 66.0127 37.1657 65.7231 37.6728 65.7231C38.1799 65.7231 38.6878 66.0127 39.0891 66.5794C39.4894 67.1449 39.7528 67.9523 39.7528 68.8674Z" fill="white" stroke="white"/>
<path d="M78.2538 68.823C78.2538 69.7381 77.9904 70.5454 77.59 71.1109C77.1888 71.6776 76.6808 71.9672 76.1738 71.9672C75.6667 71.9672 75.1587 71.6776 74.7575 71.1109C74.3571 70.5454 74.0938 69.7381 74.0938 68.823C74.0938 67.9078 74.3571 67.1005 74.7575 66.535C75.1587 65.9683 75.6667 65.6787 76.1738 65.6787C76.6808 65.6787 77.1888 65.9683 77.59 66.535C77.9904 67.1005 78.2538 67.9078 78.2538 68.823Z" fill="white" stroke="white"/>
<path d="M52.7554 85.953L56.1874 78.9897L59.5031 85.953C59.5031 85.953 57.8162 86.8856 56.1874 86.8856C54.5587 86.8856 52.7554 85.953 52.7554 85.953Z" stroke="white"/>
<path d="M44.9165 103.386C44.9165 103.386 50.7712 104.398 55.9312 104.398C61.0913 104.398 66.9459 103.386 66.9459 103.386" stroke="white"/>
<path d="M42.5782 120.767L39.8989 134.129" stroke="white"/>
<path d="M39.8989 134.129C39.8989 134.129 41.4866 144.353 56.3714 144.049C71.2561 143.746 71.3554 134.129 71.3554 134.129" stroke="white"/>
<path d="M68.6762 120.767L71.3555 134.129" stroke="white"/>
<path d="M40.0973 134.491L1 156.356" stroke="white"/>
<path d="M71.4546 134.491L111.743 156.356" stroke="white"/>
<path d="M50.0757 3.6321L59.9989 2.82227L68.7312 3.6321" stroke="white"/>
</svg>
