<svg width="818" height="613" viewBox="0 0 818 613" fill="none" xmlns="http://www.w3.org/2000/svg">
<path d="M389.881 0V527.957H454.76V0" stroke="#3B2591"/>
<path d="M64.6418 612C44.3107 571.23 20.3148 489.954 86.9802 491.01C153.646 492.066 99.8652 572.11 64.6418 612ZM64.6418 612C85.7499 578.27 132.667 515.604 151.47 534.787C170.273 553.969 101.419 594.255 64.6418 612ZM64.6418 612C2.63843 612 -2.63213 593.375 2.48303 584.063C23.2026 585.896 64.6418 594.05 64.6418 612Z" stroke="#3B2591"/>
<path d="M422.514 466.362V527.957" stroke="#3B2591"/>
<path d="M431.45 466.362V527.957" stroke="#3B2591"/>
<path d="M441.551 466.362V527.957" stroke="#3B2591"/>
<path d="M449.709 466.362V527.957" stroke="#3B2591"/>
<path d="M413.191 466.362V527.957" stroke="#3B2591"/>
<path d="M403.867 466.362V527.957" stroke="#3B2591"/>
<path d="M394.543 466.362V527.957" stroke="#3B2591"/>
<path d="M389.881 466.582H454.954" stroke="#3B2591"/>
<path d="M459.032 79.1938V527.957H523.91V79.1938" stroke="#3B2591"/>
<path d="M491.666 466.362V527.957" stroke="#3B2591"/>
<path d="M500.601 466.362V527.957" stroke="#3B2591"/>
<path d="M510.702 466.362V527.957" stroke="#3B2591"/>
<path d="M518.861 466.362V527.957" stroke="#3B2591"/>
<path d="M482.342 466.362V527.957" stroke="#3B2591"/>
<path d="M473.019 466.362V527.957" stroke="#3B2591"/>
<path d="M463.695 466.362V527.957" stroke="#3B2591"/>
<path d="M459.032 466.582H524.105" stroke="#3B2591"/>
<path d="M321.118 79.1938V527.957H385.996V79.1938" stroke="#3B2591"/>
<path d="M353.751 466.362V527.957" stroke="#3B2591"/>
<path d="M362.687 466.362V527.957" stroke="#3B2591"/>
<path d="M372.788 466.362V527.957" stroke="#3B2591"/>
<path d="M380.946 466.362V527.957" stroke="#3B2591"/>
<path d="M344.428 466.362V527.957" stroke="#3B2591"/>
<path d="M335.104 466.362V527.957" stroke="#3B2591"/>
<path d="M325.78 466.362V527.957" stroke="#3B2591"/>
<path d="M321.118 466.582H386.19" stroke="#3B2591"/>
<path d="M415.521 254.739V421.045" stroke="#3B2591"/>
<path d="M406.975 219.102V344.272" stroke="#3B2591"/>
<path d="M569.365 527.957V0" stroke="#3B2591"/>
<path d="M584.127 527.957V0" stroke="#3B2591"/>
<path d="M698.733 0V527.957H569.753" stroke="#3B2591"/>
<path d="M686.689 527.957V0" stroke="#3B2591"/>
<path d="M818 527.957H219.721" stroke="#3B2591"/>
<path d="M325.78 527.957L64.3242 610.67" stroke="#3B2591"/>
</svg>
